HIERARCHY
ROOT Hips
{
	OFFSET -3.958830 18.904000 13.208200
	CHANNELS 6 Xposition Yposition Zposition Zrotation Yrotation Xrotation 
	JOINT LHipJoint
	{
		OFFSET 0.000000 0.000000 0.000000
		CHANNELS 3 Zrotation Yrotation Xrotation
		JOINT LeftUpLeg
		{
			OFFSET 1.800000 -1.400000 0.085000
			CHANNELS 3 Zrotation Yrotation Xrotation
			JOINT LeftLeg
			{
				OFFSET 2.215000 -6.000000 0.000000
				CHANNELS 3 Zrotation Yrotation Xrotation
				JOINT LeftFoot
				{
					OFFSET 2.500000 -6.900000 0.000000
					CHANNELS 3 Zrotation Yrotation Xrotation
					JOINT LeftToeBase
					{
						OFFSET 0.200000 -0.500000 1.950000
						CHANNELS 3 Zrotation Yrotation Xrotation
						End Site
						{
							OFFSET 0.000000 0.000000 0.000000
						}
					}
				}
			}
		}
	}
	JOINT RHipJoint
	{
		OFFSET 0.000000 0.000000 0.000000
		CHANNELS 3 Zrotation Yrotation Xrotation
		JOINT RightUpLeg
		{
			OFFSET -1.800000 -1.400000 0.085000
			CHANNELS 3 Zrotation Yrotation Xrotation
			JOINT RightLeg
			{
				OFFSET -2.215000 -6.000000 0.000000
				CHANNELS 3 Zrotation Yrotation Xrotation
				JOINT RightFoot
				{
					OFFSET -2.500000 -6.900000 0.000000
					CHANNELS 3 Zrotation Yrotation Xrotation
					JOINT RightToeBase
					{
						OFFSET -0.200000 -0.500000 1.950000
						CHANNELS 3 Zrotation Yrotation Xrotation
						End Site
						{
							OFFSET 0.000000 0.000000 0.000000
						}
					}
				}
			}
		}
	}
	JOINT LowerBack
	{
		OFFSET 0.000000 0.000000 0.000000
		CHANNELS 3 Zrotation Yrotation Xrotation
		JOINT Spine
		{
			OFFSET -0.087000 1.940000 -0.288900
			CHANNELS 3 Zrotation Yrotation Xrotation
			JOINT Spine1
			{
				OFFSET 0.000000 1.950000 0.060000
				CHANNELS 3 Zrotation Yrotation Xrotation
				JOINT Neck
				{
					OFFSET 0.000000 0.000000 0.000000
					CHANNELS 3 Zrotation Yrotation Xrotation
					JOINT Neck1
					{
						OFFSET 0.000000 1.600000 0.340000
						CHANNELS 3 Zrotation Yrotation Xrotation
						JOINT Head
						{
							OFFSET 0.000000 1.667000 -0.240000
							CHANNELS 3 Zrotation Yrotation Xrotation
							End Site
							{
								OFFSET 0.000000 0.000000 0.000000
							}
						}
					}
				}
				JOINT LeftShoulder
				{
					OFFSET 0.000000 0.000000 0.000000
					CHANNELS 3 Zrotation Yrotation Xrotation
					JOINT LeftArm
					{
						OFFSET 2.700000 1.550000 -0.730000
						CHANNELS 3 Zrotation Yrotation Xrotation
						JOINT LeftForeArm
						{
							OFFSET 5.450000 0.000000 0.000000
							CHANNELS 3 Zrotation Yrotation Xrotation
							JOINT LeftHand
							{
								OFFSET 3.450000 0.000000 0.000000
								CHANNELS 3 Zrotation Yrotation Xrotation
								JOINT LeftHandIndex1
								{
									OFFSET 0.750000 0.000000 0.000000
									CHANNELS 3 Zrotation Yrotation Xrotation
									End Site
									{
										OFFSET 0.000000 0.000000 0.000000
									}
								}
							}
						}
					}
				}
				JOINT RightShoulder
				{
					OFFSET 0.000000 0.000000 0.000000
					CHANNELS 3 Zrotation Yrotation Xrotation
					JOINT RightArm
					{
						OFFSET -2.700000 1.550000 -0.730000
						CHANNELS 3 Zrotation Yrotation Xrotation
						JOINT RightForeArm
						{
							OFFSET -5.450000 0.000000 0.000000
							CHANNELS 3 Zrotation Yrotation Xrotation
							JOINT RightHand
							{
								OFFSET -3.450000 0.000000 0.000000
								CHANNELS 3 Zrotation Yrotation Xrotation
								JOINT RightHandIndex1
								{
									OFFSET -0.750000 0.000000 0.000000
									CHANNELS 3 Zrotation Yrotation Xrotation
									End Site
									{
										OFFSET 0.000000 0.000000 0.000000
									}
								}
							}
						}
					}
				}
			}
		}
	}
}
MOTION
Frames: 13
Frame Time: 0.016667
-2.009630 14.852240 -1.798540 23.030638 75.179835 -15.388466 -15.551237 11.615718 6.182434 10.035672 -22.093483 -23.716380 -28.192190 27.457293 63.479090 2.269514 15.333824 -0.236700 -0.192300 -0.392960 -0.476660 17.878850 -10.993776 1.661799 -6.762913 -3.625702 17.602907 -26.354824 0.644983 72.406725 -2.208507 -11.802231 0.712958 -0.134190 0.607210 0.024230 -3.821619 -1.070802 -8.358875 5.736978 -4.174598 71.471053 -21.175837 3.183843 -9.000307 21.719688 -14.427289 -18.603554 -38.489413 14.996850 29.115066 -1.475070 -1.581020 2.759280 -19.444667 -16.504041 4.137013 -52.479917 -17.683869 -9.404152 8.831771 -30.703134 -6.365491 -3.624536 3.157479 0.339660 0.141680 -0.295650 0.203210 -19.807667 38.448955 10.439637 -66.236838 -27.503134 1.028715 -107.313175 -17.594749 26.954314 3.480291 -1.222450 -0.368630 0.386720 0.422040 0.062500 
-1.979600 14.868680 -1.806800 22.716309 75.358375 -15.028501 -15.552293 11.640390 6.191924 9.793982 -22.060899 -24.060367 -27.678644 27.225758 63.685764 2.268088 15.285236 -0.233593 -0.196000 -0.404210 -0.466720 17.876101 -10.992737 1.652219 -6.861838 -3.551934 17.451070 -25.992988 0.447562 71.736055 -2.185610 -11.686320 0.738892 -0.155010 0.581660 0.025590 -3.798586 -1.144955 -8.368187 6.252896 -4.406998 70.931130 -21.674720 3.020056 -10.137571 21.932777 -14.156842 -18.879369 -38.571523 15.161198 30.402984 -1.401410 -1.513100 3.192560 -19.210422 -16.101296 3.984138 -52.475194 -16.713301 -9.152994 7.415881 -30.371737 -5.823016 -3.606846 3.156963 0.357030 0.122030 -0.276930 0.194330 -20.182228 38.164959 10.513963 -64.875739 -27.208857 0.779002 -109.557411 -17.603255 27.970042 3.499433 -1.232347 -0.358480 0.368770 0.418910 0.056710 
-1.944210 14.887230 -1.815690 21.926174 75.580251 -15.053370 -15.542271 11.696590 6.201811 9.701580 -21.977318 -24.423368 -27.200385 26.949723 63.818074 2.265743 15.218122 -0.226324 -0.195410 -0.414010 -0.452710 17.885311 -10.949039 1.659556 -6.719388 -3.580943 17.340335 -25.726707 0.307658 70.993962 -2.163359 -11.566477 0.767061 -0.176850 0.552990 0.024370 -3.717496 -1.349980 -8.376422 6.804893 -4.568761 70.321189 -21.946131 2.789349 -11.642846 22.153203 -13.875425 -19.154159 -38.814297 15.449351 31.748204 -1.239520 -1.488290 3.878930 -19.060801 -15.437134 3.756559 -52.758104 -15.344603 -9.008868 5.677345 -30.303630 -5.257858 -3.581756 3.163994 0.372090 0.098890 -0.259990 0.187230 -20.380758 37.734343 10.592132 -63.772367 -26.670457 0.606079 -111.613037 -17.471304 28.725768 3.499417 -1.256076 -0.345850 0.346020 0.410510 0.051360 
-1.906250 14.909210 -1.822920 21.294903 75.850377 -15.141546 -15.521750 11.792464 6.215639 9.510244 -22.016177 -24.557570 -26.819633 26.693716 63.953500 2.270927 15.169046 -0.218352 -0.201500 -0.430190 -0.445680 17.905211 -10.856461 1.677649 -6.609623 -3.798362 17.711234 -25.563743 0.174208 69.836528 -2.130750 -11.421462 0.801624 -0.200240 0.534330 0.029320 -3.554319 -1.734838 -8.381067 7.078454 -4.310268 70.110001 -21.577988 2.583025 -13.468063 22.409512 -13.648331 -19.302463 -39.177868 15.703788 32.773024 -1.458110 -1.401120 4.820500 -19.199716 -14.541155 3.454610 -53.267571 -13.865977 -8.892212 3.943008 -30.325035 -4.734881 -3.571011 3.172785 0.376980 0.087030 -0.249760 0.180700 -20.239456 37.236765 10.605296 -63.342035 -26.137863 0.778865 -113.001173 -16.510602 28.306982 3.461417 -1.301513 -0.332830 0.321620 0.406950 0.049680 
-1.867420 14.929430 -1.830840 20.967606 75.806286 -14.850641 -15.509601 11.870704 6.235435 9.344028 -22.010326 -24.841390 -26.586796 26.566696 64.042848 2.286670 15.152342 -0.204208 -0.224090 -0.454340 -0.470040 17.920329 -10.763267 1.690853 -6.467972 -3.985952 18.061627 -25.786817 0.359050 68.484891 -2.090767 -11.286663 0.848833 -0.221640 0.546710 0.029480 -3.400629 -2.084375 -8.388905 7.143815 -3.707859 69.871556 -21.142098 2.653951 -15.085049 22.612780 -13.571586 -19.316853 -39.360927 15.639989 33.082300 -1.444250 -1.550390 5.791560 -19.362020 -13.600642 3.083522 -53.675618 -12.535859 -8.845198 2.078383 -30.553162 -4.210422 -3.576825 3.171270 0.368580 0.094080 -0.257620 0.183990 -19.994022 36.735513 10.640913 -63.347145 -26.078952 1.224412 -112.968139 -16.134295 28.016007 3.423475 -1.319655 -0.330550 0.314330 0.412610 0.059410 
-1.828130 14.952860 -1.839350 20.524768 75.399603 -14.681205 -15.513932 11.890562 6.229855 9.180200 -21.799090 -25.037187 -26.203965 26.467978 64.180158 2.291643 15.116953 -0.195246 -0.232460 -0.456000 -0.472140 17.912665 -10.759670 1.700937 -6.439463 -3.958437 18.209552 -26.010107 0.645863 67.059364 -2.056935 -11.118094 0.905160 -0.231800 0.534830 0.018190 -3.384187 -2.119409 -8.390151 7.325098 -3.700561 69.029897 -21.388175 2.566622 -15.586801 22.674953 -13.413710 -19.539443 -39.342078 15.875189 33.956818 -1.332320 -1.268910 6.197940 -18.972255 -13.255442 3.201164 -53.725727 -11.222385 -9.261252 0.905496 -31.108753 -3.957966 -3.555908 3.155424 0.378170 0.085040 -0.245000 0.181370 -20.346604 36.446624 10.699484 -62.546450 -25.921255 1.155071 -114.478546 -15.682724 28.210362 3.436063 -1.317857 -0.329790 0.315350 0.406630 0.058420 
-1.782150 14.981750 -1.849220 19.721579 75.203942 -14.866872 -15.513359 11.921103 6.208661 8.896402 -21.576772 -25.067375 -25.530132 26.164298 64.354390 2.268221 15.029979 -0.190005 -0.223650 -0.446270 -0.447600 17.905516 -10.772466 1.719287 -6.483457 -3.909316 18.427662 -25.878650 0.666680 65.795058 -2.029151 -10.932389 0.954291 -0.236410 0.496160 0.003120 -3.392344 -2.127304 -8.387440 7.862707 -4.037117 68.104648 -21.956862 2.318411 -16.295603 22.700725 -13.106680 -19.848898 -39.214763 16.324135 35.559300 -1.028310 -0.995450 6.190300 -18.748338 -12.861654 3.337267 -53.546924 -9.523856 -9.812581 -0.624398 -31.931012 -3.620411 -3.513331 3.143791 0.406690 0.054540 -0.217330 0.169750 -20.491742 36.070832 10.736857 -61.530597 -25.217418 0.851313 -116.143123 -15.002434 28.069080 3.443050 -1.319160 -0.327150 0.312560 0.395160 0.044700 
-1.732080 15.013670 -1.864440 17.284896 74.746193 -16.812012 -15.476120 11.999011 6.171262 8.986823 -21.183128 -24.925684 -24.850555 25.899895 64.603820 2.235040 14.977730 -0.190564 -0.219020 -0.451330 -0.424600 17.930893 -10.740457 1.762901 -6.323212 -3.866428 18.819249 -25.675523 0.662331 64.532202 -1.998251 -10.754758 1.003895 -0.243470 0.472290 -0.010310 -3.310678 -2.293489 -8.374315 8.809403 -4.479122 67.425827 -22.339868 2.198992 -17.148935 22.799727 -12.918876 -20.183295 -39.421224 16.901882 36.897447 -1.080220 -0.641020 6.425400 -18.848000 -12.266698 3.312704 -53.705011 -7.760941 -10.332168 -1.970447 -32.540951 -3.326223 -3.485786 3.126224 0.436020 0.033490 -0.202500 0.161250 -20.413962 35.801590 10.926133 -61.259758 -24.168136 0.711636 -116.575134 -14.919748 28.191684 3.430835 -1.299108 -0.335480 0.315100 0.389720 0.028220 
-1.681120 15.043670 -1.883470 14.793725 74.268399 -19.105847 -15.429811 12.096491 6.119463 8.963956 -20.813029 -24.440279 -24.150736 25.595092 64.827404 2.211476 14.919212 -0.186805 -0.210130 -0.450400 -0.397190 17.960821 -10.706437 1.815791 -6.276092 -3.888076 19.505320 -25.423930 0.589246 63.192212 -1.965450 -10.582096 1.045206 -0.246790 0.448290 -0.011970 -3.201968 -2.515308 -8.350170 9.845623 -5.059943 66.812945 -22.613279 2.111338 -17.393176 22.918533 -12.827137 -20.468208 -39.662239 17.451358 37.890853 -1.580400 -0.128270 6.719380 -19.320059 -11.973501 3.348015 -53.551486 -6.297687 -10.823085 -3.083265 -32.942637 -3.076904 -3.465313 3.129920 0.447220 0.020550 -0.189430 0.152330 -20.183513 35.856391 11.103467 -61.518887 -22.944228 0.531796 -116.379000 -14.502901 27.564821 3.419228 -1.292101 -0.332250 0.306540 0.381890 0.015990 
-1.623990 15.073930 -1.901580 12.834821 73.677281 -20.588380 -15.396118 12.194390 6.075241 8.872585 -20.390468 -24.182512 -23.421026 25.256972 64.961000 2.178326 14.839958 -0.178307 -0.202600 -0.442450 -0.382840 17.980341 -10.680245 1.850576 -6.274149 -3.804994 19.876971 -25.213469 0.594646 61.805061 -1.928010 -10.399289 1.089672 -0.244270 0.434100 -0.018240 -3.106440 -2.731635 -8.325683 10.833053 -5.507282 65.813647 -22.916485 2.069775 -17.715913 22.850123 -12.802485 -20.640057 -39.846890 17.918679 38.852045 -1.550420 0.153760 6.705830 -19.769447 -11.371219 3.162751 -53.459449 -4.858368 -11.120506 -4.153321 -32.911549 -2.779203 -3.452816 3.122174 0.459270 0.006730 -0.178550 0.147130 -19.676624 35.620299 11.274522 -62.086670 -21.118937 0.473389 -117.093069 -14.212788 27.740183 3.384432 -1.270880 -0.332930 0.308360 0.378030 0.010830 
-1.567720 15.103530 -1.924770 10.347572 72.853530 -22.923563 -15.355262 12.284523 6.010997 8.933813 -19.865975 -23.606171 -22.782944 25.023997 65.117338 2.162461 14.774027 -0.166007 -0.181510 -0.412970 -0.364340 18.001852 -10.669660 1.904367 -6.240359 -3.721674 20.453816 -25.018436 0.628024 60.470651 -1.897375 -10.233727 1.139168 -0.230030 0.417790 -0.028880 -3.032531 -2.897280 -8.292671 12.212102 -6.297004 64.720202 -23.261217 2.137683 -17.109000 22.740344 -12.774192 -20.934962 -40.318291 18.638834 39.917196 -1.733010 0.472080 6.981490 -20.460076 -11.492291 3.246208 -53.227324 -3.962490 -11.264551 -4.238221 -32.187438 -2.704177 -3.432609 3.116142 0.459740 -0.003140 -0.167540 0.152780 -19.065458 35.958565 11.518797 -63.113479 -19.393117 0.406101 -117.344987 -13.365036 27.015721 3.356698 -1.259626 -0.327760 0.310230 0.357280 0.010570 
-1.500740 15.137650 -1.948360 7.876190 71.754908 -24.583885 -15.327071 12.359782 5.980866 9.311241 -19.361704 -23.644485 -22.408777 24.773570 64.973674 2.138977 14.661210 -0.148946 -0.160050 -0.377170 -0.352730 18.014609 -10.666233 1.931737 -6.160653 -3.600113 20.430479 -25.068228 0.847913 58.820882 -1.854808 -10.025164 1.207500 -0.218110 0.397530 -0.046280 -2.974052 -3.049610 -8.263044 14.015979 -7.192353 62.928451 -24.033636 2.039959 -17.402179 22.601048 -12.554377 -21.454622 -40.794827 19.770788 41.735219 -1.384540 0.942270 7.856980 -20.682663 -11.118479 3.218315 -53.510264 -2.700465 -11.107827 -4.001533 -30.711603 -2.587461 -3.415828 3.096671 0.463310 -0.016780 -0.153840 0.161040 -18.599277 35.835509 11.966549 -63.668519 -17.433996 0.476762 -118.099565 -13.702048 28.126988 3.339511 -1.230921 -0.320280 0.305390 0.330590 0.013220 
-1.423090 15.176410 -1.967800 6.524212 70.436296 -24.636612 -15.355102 12.352770 5.964089 9.635134 -18.861560 -24.052404 -22.220792 24.569523 64.572791 2.115162 14.542555 -0.124305 -0.160380 -0.365120 -0.364810 17.973491 -10.757704 1.914210 -6.352154 -3.327157 19.803549 -25.371277 1.224748 56.924491 -1.802096 -9.779384 1.289994 -0.221320 0.398570 -0.060080 -3.123276 -2.779823 -8.244322 16.159663 -8.397339 60.051650 -25.844476 1.910169 -17.211593 22.247082 -12.175069 -22.275780 -40.844616 20.826255 44.144998 -0.226070 1.125380 8.939710 -20.224449 -11.254818 3.489006 -53.577283 -1.604374 -10.746555 -3.014779 -28.590458 -2.560984 -3.411760 3.059845 0.475570 -0.026370 -0.140440 0.171030 -18.502322 35.929922 12.606941 -63.467452 -16.242098 0.560731 -119.286283 -14.974941 30.963594 3.373353 -1.155845 -0.320000 0.314390 0.322230 0.021690 
